<?xml version="1.0" encoding="UTF-8" standalone="no"?>
<svg
   enable-background="new 0 0 26 26"
   id="Слой_1"
   version="1.1"
   viewBox="0 0 26 26"
   xml:space="preserve"
   sodipodi:docname="2703065_search_find_icon.svg"
   inkscape:version="1.2.2 (b0a8486, 2022-12-01)"
   xmlns:inkscape="http://www.inkscape.org/namespaces/inkscape"
   xmlns:sodipodi="http://sodipodi.sourceforge.net/DTD/sodipodi-0.dtd"
   xmlns="http://www.w3.org/2000/svg"
   xmlns:svg="http://www.w3.org/2000/svg"><defs
     id="defs956" /><sodipodi:namedview
     id="namedview954"
     pagecolor="#ffffff"
     bordercolor="#000000"
     borderopacity="0.25"
     inkscape:showpageshadow="2"
     inkscape:pageopacity="0.0"
     inkscape:pagecheckerboard="0"
     inkscape:deskcolor="#d1d1d1"
     showgrid="false"
     inkscape:zoom="9.0769231"
     inkscape:cx="-6.9957627"
     inkscape:cy="13"
     inkscape:window-width="1280"
     inkscape:window-height="456"
     inkscape:window-x="0"
     inkscape:window-y="23"
     inkscape:window-maximized="0"
     inkscape:current-layer="Слой_1" /><path
     d="M14.9462891,1C9.4033203,1,4.8935547,5.5097656,4.8935547,11.0532227  c0,2.5022583,0.9248047,4.7885132,2.4428101,6.5498657l-6.1166382,6.1166382c-0.2929688,0.2929688-0.2929688,0.7675781,0,1.0605469  C1.3662109,24.9267578,1.5576172,25,1.75,25s0.3837891-0.0732422,0.5302734-0.2197266l6.1165771-6.1165771  c1.7612305,1.5180054,4.0474243,2.442749,6.5494385,2.442749C20.4902344,21.1064453,25,16.5966797,25,11.0532227  S20.4902344,1,14.9462891,1z M14.9462891,19.6064453c-4.7158203,0-8.5527344-3.8369141-8.5527344-8.5532227  S10.2304688,2.5,14.9462891,2.5C19.6630859,2.5,23.5,6.3369141,23.5,11.0532227S19.6630859,19.6064453,14.9462891,19.6064453z"
     fill="#1D1D1B"
     id="path951" /><path
     style="fill:#252525;stroke-width:0.110169"
     d="M 1.2840241,24.696834 C 0.86353516,24.232198 0.96318277,24.101839 4.2603084,20.803242 7.212478,17.849756 7.4086936,17.629142 7.2624271,17.427832 6.5741864,16.480586 6.3484686,16.124309 6.0178466,15.463366 4.6184339,12.66581 4.6130201,9.4700899 6.0029421,6.6652542 7.1050587,4.4412044 8.8282045,2.8341705 11.202195,1.8163465 c 2.217387,-0.95068174 5.08386,-0.96536749 7.416449,-0.037996 2.498856,0.9934739 4.607227,3.1016054 5.603643,5.6030059 0.539477,1.3542978 0.712474,2.459838 0.645084,4.1223886 -0.06823,1.683265 -0.275302,2.500495 -1.007208,3.97507 -2.466154,4.968569 -8.422923,6.961807 -13.370027,4.473843 C 10.022468,19.717461 9.3684952,19.321091 9.0368632,19.071836 8.7052311,18.82258 8.4074474,18.618644 8.3751213,18.618644 c -0.032326,0 -1.4710457,1.412924 -3.1971552,3.139831 -3.3051605,3.306687 -3.4569514,3.421228 -3.893942,2.938359 z M 17.031106,19.390474 C 22.591023,17.988781 25.261173,11.598567 22.355956,6.6470235 21.870461,5.8195652 20.180434,4.129539 19.352977,3.6440448 15.542273,1.4081921 10.519958,2.4492672 7.9859893,6.0003061 6.1531028,8.5688664 5.8526682,11.990476 7.2118904,14.816415 c 1.0644833,2.213152 3.1716746,3.937625 5.5833716,4.569293 1.138018,0.298068 3.063848,0.300235 4.235844,0.0048 z"
     id="path2806" /><path
     style="fill:#6a6a6a;stroke-width:0.110169;fill-opacity:1"
     d="M 1.3263256,24.657193 C 1.2027787,24.52458 1.1020216,24.388246 1.1024208,24.354226 c 0.0031,-0.264305 0.7555201,-1.085821 4.2669607,-4.658814 L 7.3969035,17.632351 7.1963331,17.288184 C 7.0860194,17.098893 6.8854896,16.823867 6.7507113,16.677015 6.6159329,16.530161 6.504792,16.374007 6.5037316,16.330004 6.5026739,16.286002 6.4169062,16.150847 6.3131432,16.029661 6.2093802,15.908475 6.1332791,15.784534 6.14403,15.754237 6.1736199,15.670851 5.9040403,15.09322 5.835534,15.09322 5.802627,15.09322 5.768537,15.00646 5.75978,14.900424 5.75102,14.794386 5.656898,14.509322 5.5506147,14.266949 5.4443314,14.024576 5.3647221,13.794669 5.3737051,13.756046 5.3826851,13.717426 5.3414211,13.519116 5.2820001,13.315368 5.0558688,12.539983 4.9532045,10.892501 5.0716294,9.9394951 5.2225137,8.725278 5.7231337,7.1849486 6.2700577,6.2521186 6.5098594,5.8431144 6.6870128,5.5084746 6.6637319,5.5084746 c -0.023281,0 0.1284236,-0.185911 0.3371212,-0.4131356 C 7.2095507,4.8681144 7.3805401,4.6515444 7.3808295,4.6140723 7.3818982,4.475259 8.399253,3.5340932 8.9822826,3.1325453 9.3136374,2.9043325 9.5847458,2.6733514 9.5847458,2.6192538 c 0,-0.054098 0.042068,-0.07236 0.093485,-0.040582 0.051417,0.031777 0.1948683,-0.036676 0.3187811,-0.1521183 0.1239131,-0.1154423 0.2553611,-0.1798296 0.2921081,-0.1430829 0.03675,0.036747 0.06681,7.105e-4 0.06681,-0.08008 0,-0.080791 0.03093,-0.1159659 0.06873,-0.078167 0.0378,0.037799 0.273287,-0.037829 0.523305,-0.1680623 0.250019,-0.1302335 0.504156,-0.2483232 0.564749,-0.2624214 0.06059,-0.014098 0.50678,-0.1366101 0.991525,-0.2722486 0.724957,-0.2028529 1.155055,-0.2459927 2.423729,-0.2431058 1.325887,0.00302 1.689274,0.044549 2.588983,0.295901 0.575636,0.1608153 1.108581,0.2995368 1.184322,0.3082701 0.07574,0.00873 0.137712,0.051818 0.137712,0.095743 0,0.043926 0.121123,0.1102643 0.269161,0.1474195 0.148037,0.037155 0.676177,0.3399873 1.173643,0.6729602 0.497466,0.3329729 0.91342,0.6054053 0.924343,0.6054053 0.02405,0 1.488785,1.4618274 1.488785,1.4858269 0,0.00929 0.274762,0.4345318 0.610583,0.9449703 0.335821,0.5104385 0.638652,1.0399096 0.67296,1.1766025 0.03431,0.1366929 0.114842,0.2485325 0.178965,0.2485325 0.06412,0 0.08846,0.028126 0.05409,0.062501 -0.03438,0.034376 0.034,0.3370734 0.151953,0.6726613 0.340879,0.9698631 0.431742,1.641468 0.43712,3.2309399 0.004,1.188218 -0.0427,1.664514 -0.232329,2.368644 -0.130548,0.484745 -0.248733,0.930932 -0.262632,0.991525 -0.0139,0.06059 -0.107348,0.265007 -0.207663,0.454253 -0.100316,0.189245 -0.151318,0.375156 -0.113339,0.413136 0.03798,0.03798 0.0083,0.06905 -0.06598,0.06905 -0.07427,0 -0.107009,0.04534 -0.07276,0.10076 0.03425,0.05542 0.02151,0.117388 -0.0283,0.137712 -0.04982,0.02032 -0.335189,0.405038 -0.634161,0.85492 -0.29897,0.449884 -0.593159,0.89008 -0.653752,0.978214 -0.217455,0.316293 -1.191555,1.187406 -1.856389,1.660122 -0.813208,0.578212 -2.193598,1.238681 -3.101677,1.484043 -1.400126,0.378312 -3.363775,0.424844 -4.736849,0.112248 -0.18178,-0.04138 -0.404873,-0.08393 -0.495763,-0.09455 -0.09089,-0.01062 -0.353059,-0.100078 -0.582599,-0.198795 -0.22954,-0.09872 -0.502209,-0.19362 -0.605932,-0.210893 -0.103723,-0.01727 -0.213376,-0.06208 -0.243672,-0.09958 -0.07531,-0.09321 -1.2027395,-0.658046 -1.2412444,-0.621857 -0.016982,0.01596 -0.1536534,-0.08581 -0.3037144,-0.226164 -0.1500609,-0.14035 -0.4379912,-0.357583 -0.639845,-0.48274 L 8.3549691,18.589603 6.4635015,20.46294 c -3.6292692,3.594481 -4.5436804,4.435365 -4.8231971,4.435365 -0.049141,0 -0.190432,-0.1085 -0.3139788,-0.241112 z M 16.533202,19.508354 c 0.33754,-0.0553 1.00682,-0.252541 1.487288,-0.438323 3.437709,-1.329255 5.632508,-4.649521 5.505398,-8.328506 C 23.471699,9.1731185 23.27171,8.4094446 22.544951,6.9957627 22.025378,5.9850929 20.529247,4.3771625 19.5,3.7232726 18.856576,3.3144999 17.667226,2.8046811 17.126471,2.7058516 16.947378,2.6731202 16.676907,2.6158041 16.525424,2.5784826 16.03743,2.4582537 14.286609,2.4368727 13.605932,2.5428299 10.941611,2.9575695 8.4917214,4.7353743 7.3269802,7.0992592 6.653954,8.4651908 6.3828851,9.5801102 6.3816439,10.987473 c -0.00221,2.50543 0.8609675,4.562675 2.6357726,6.281945 0.7103184,0.688091 1.1489945,0.986038 2.3240935,1.578512 0.804498,0.405621 1.054748,0.487578 1.878829,0.615323 0.212076,0.03287 0.40625,0.07938 0.431498,0.103344 0.08952,0.08498 2.277042,0.04076 2.881365,-0.05824 z"
     id="path2808" /></svg>
